<svg width="40" height="40" viewBox="0 0 40 40" fill="none" xmlns="http://www.w3.org/2000/svg">
<path d="M36.0833 3.73342C35.9016 3.57751 35.6884 3.46258 35.4584 3.39643C35.2283 3.33028 34.9867 3.31447 34.7499 3.35009L13.0833 6.68342C12.6887 6.74328 12.3287 6.94274 12.0687 7.24553C11.8088 7.54832 11.6661 7.93434 11.6666 8.33342V25.5834C10.8879 25.2031 10.0332 25.0036 9.16659 25.0001C8.01286 25.0001 6.88505 25.3422 5.92576 25.9832C4.96647 26.6242 4.2188 27.5352 3.77729 28.6011C3.33578 29.667 3.22026 30.8399 3.44534 31.9714C3.67042 33.103 4.22599 34.1424 5.0418 34.9582C5.8576 35.774 6.89701 36.3296 8.02856 36.5547C9.16012 36.7798 10.333 36.6642 11.3989 36.2227C12.4648 35.7812 13.3759 35.0335 14.0168 34.0743C14.6578 33.115 14.9999 31.9871 14.9999 30.8334V18.1001L33.3333 15.2834V22.2501C32.5545 21.8697 31.6999 21.6703 30.8333 21.6668C29.6795 21.6668 28.5517 22.0089 27.5924 22.6498C26.6331 23.2908 25.8855 24.2019 25.444 25.2678C25.0024 26.3337 24.8869 27.5066 25.112 28.6381C25.3371 29.7697 25.8927 30.8091 26.7085 31.6249C27.5243 32.4407 28.5637 32.9963 29.6952 33.2213C30.8268 33.4464 31.9997 33.3309 33.0656 32.8894C34.1315 32.4479 35.0425 31.7002 35.6835 30.7409C36.3245 29.7816 36.6666 28.6538 36.6666 27.5001V5.00009C36.6666 4.75935 36.6145 4.52147 36.5138 4.30281C36.4131 4.08415 36.2662 3.8899 36.0833 3.73342ZM9.16659 33.3334C8.67213 33.3334 8.18879 33.1868 7.77766 32.9121C7.36654 32.6374 7.04611 32.2469 6.85689 31.7901C6.66767 31.3333 6.61816 30.8307 6.71462 30.3457C6.81109 29.8607 7.04919 29.4153 7.39882 29.0657C7.74845 28.716 8.19391 28.4779 8.67886 28.3815C9.16381 28.285 9.66648 28.3345 10.1233 28.5237C10.5801 28.7129 10.9706 29.0334 11.2453 29.4445C11.52 29.8556 11.6666 30.339 11.6666 30.8334C11.6666 31.4965 11.4032 32.1323 10.9344 32.6012C10.4655 33.07 9.82963 33.3334 9.16659 33.3334ZM30.8333 30.0001C30.3388 30.0001 29.8555 29.8535 29.4443 29.5788C29.0332 29.3041 28.7128 28.9136 28.5236 28.4568C28.3343 28 28.2848 27.4973 28.3813 27.0124C28.4778 26.5274 28.7159 26.082 29.0655 25.7323C29.4151 25.3827 29.8606 25.1446 30.3455 25.0481C30.8305 24.9517 31.3331 25.0012 31.79 25.1904C32.2468 25.3796 32.6372 25.7 32.9119 26.1112C33.1866 26.5223 33.3333 27.0056 33.3333 27.5001C33.3333 28.1631 33.0699 28.799 32.601 29.2679C32.1322 29.7367 31.4963 30.0001 30.8333 30.0001ZM33.3333 11.9001L14.9999 14.7168V9.71675L33.3333 6.95009V11.9001Z" fill="#D69F56"/>
</svg>
