<svg width="40" height="40" viewBox="0 0 40 40" fill="none" xmlns="http://www.w3.org/2000/svg">
<path d="M9.06657 13.2668L9.93324 12.3835C10.8999 11.4168 12.4999 11.4168 13.4999 12.4502L13.5332 12.5002C14.3499 13.3335 15.4332 13.7335 16.6166 13.8502C18.2332 14.0002 19.7999 14.8668 20.8332 16.4335C21.9666 18.2335 21.9499 20.6335 20.7666 22.4168C20.3202 23.1226 19.72 23.7183 19.0109 24.1593C18.3018 24.6003 17.502 24.8752 16.6716 24.9634C15.8412 25.0515 15.0016 24.9507 14.2157 24.6685C13.4297 24.3862 12.7178 23.9298 12.1332 23.3335C11.1999 22.4168 10.6666 21.2335 10.5332 20.0002C10.3999 18.7835 9.91657 17.6335 9.06657 16.7835C8.0999 15.8335 8.0999 14.2335 9.06657 13.2668ZM16.0666 26.6668C14.1166 26.6668 12.2999 25.9168 10.9499 24.5335C9.78324 23.3335 9.0499 21.8335 8.86657 20.2002C8.81657 19.7002 8.66657 19.0502 8.26657 18.4502C7.26657 19.8335 6.66657 21.5002 6.66657 23.3335C6.66657 26.0668 7.9999 28.4835 10.0499 30.0002H31.6666V28.3335C31.6666 22.3335 27.6832 17.2502 22.2332 15.5835C23.7166 17.9168 23.6832 21.0335 22.1666 23.3335C20.8332 25.4168 18.5332 26.6668 16.0666 26.6668ZM24.6332 12.6002H26.7499C28.1999 12.6002 29.4666 13.6168 29.4666 15.4335V16.6668H31.5499V15.0002C31.5499 12.5002 29.3332 10.6002 26.7499 10.6002H24.6332C23.2499 10.6002 22.0666 9.2335 22.0666 7.8335C22.0666 6.4335 23.2499 5.40016 24.6332 5.40016V3.3335C22.0666 3.3335 19.9999 5.40016 19.9999 7.96683C19.9999 10.5335 22.0666 12.6002 24.6332 12.6002ZM7.4999 12.5835C7.5999 12.4168 7.73324 12.2502 7.88324 12.0835L8.7499 11.2168C8.8999 11.0668 9.06657 10.9502 9.23324 10.8335L6.88324 8.45016C7.11657 8.00016 7.03324 7.41683 6.66657 7.0335C6.4279 6.80117 6.10798 6.67117 5.7749 6.67117C5.44183 6.67117 5.1219 6.80117 4.88324 7.0335C4.6499 7.26683 4.53324 7.55016 4.51657 7.85016C4.21657 7.86683 3.93324 7.9835 3.6999 8.21683C3.21657 8.70016 3.21657 9.50016 3.6999 10.0002C4.08324 10.3668 4.6499 10.4502 5.11657 10.2168L7.4999 12.5835ZM30.6499 7.31683C31.4999 6.46683 32.0332 5.31683 32.0332 4.0335H29.9499C29.9499 5.41683 28.7832 6.5835 27.3999 6.5835V8.65016C30.4999 8.65016 32.9332 11.1835 32.9332 14.2835V18.3335H34.9999V14.2835C35.0082 12.8297 34.6039 11.4033 33.8339 10.1701C33.0639 8.93695 31.9598 7.94754 30.6499 7.31683ZM8.33324 35.0002H31.6666C33.5166 35.0002 34.9999 33.5168 34.9999 31.6668H4.9999C4.9999 32.5509 5.35109 33.3987 5.97621 34.0239C6.60133 34.649 7.44918 35.0002 8.33324 35.0002Z" fill="#D69F56"/>
</svg>
