<svg width="40" height="40" viewBox="0 0 40 40" fill="none" xmlns="http://www.w3.org/2000/svg">
<path d="M14.4083 23.221L15.3883 27.9685L20.0008 26.441L24.6124 27.9685L25.5924 23.221L29.2249 20.001L25.5916 16.7802L24.6124 12.0327L19.9999 13.5602L15.3883 12.0318L14.4083 16.7793L10.7758 20.0002L14.4083 23.221ZM14.4083 23.221L35.5566 11.0418M14.4083 23.221L4.44409 28.9585M19.9999 2.0835V26.4418V37.9168M14.7174 5.95933L20.0008 8.48266L25.2833 5.95933M25.2833 34.0418L19.9999 31.5185L14.7174 34.0418M29.5499 8.41683L29.9999 14.2418L34.8333 17.5435M10.4499 31.5852L9.99992 25.7602M5.16826 22.4585L9.99992 25.7593M35.5566 28.9593L25.5916 23.221L4.44493 11.0418M34.8333 22.4585L30.0016 25.7602M29.5499 31.5852L29.9999 25.7602M5.16826 17.5435L9.99992 14.2418L10.4499 8.41683" stroke="#D69F56" stroke-width="0.5" stroke-linecap="round" stroke-linejoin="round"/>
</svg>
