<svg width="40" height="40" viewBox="0 0 40 40" fill="none" xmlns="http://www.w3.org/2000/svg">
<path d="M27.5001 34.9998V25.8332C27.5001 25.0582 27.5001 24.6715 27.4367 24.3498C27.3082 23.7029 26.9907 23.1087 26.5243 22.6423C26.0579 22.1759 25.4637 21.8583 24.8167 21.7298C24.4951 21.6665 23.3334 21.6665 23.3334 21.6665C22.5001 29.9998 15.8334 31.6665 15.8334 31.6665C15.8334 31.6665 9.16675 29.9998 8.33341 21.6665C8.33341 21.6665 7.17175 21.6665 6.85008 21.7298C6.20316 21.8583 5.6089 22.1759 5.14251 22.6423C4.67613 23.1087 4.35859 23.7029 4.23008 24.3498C4.16675 24.6715 4.16675 25.0582 4.16675 25.8332V34.9998" stroke="#D69F56" stroke-width="1.5" stroke-linecap="round" stroke-linejoin="round"/>
<path d="M15.8335 22.5L19.1668 20.8333V24.1667L15.8335 22.5ZM15.8335 22.5L12.5002 20.8333V24.1667L15.8335 22.5ZM35.8335 35V25.8333C35.8335 25.0583 35.8335 24.6717 35.7702 24.35C35.6417 23.7031 35.3241 23.1088 34.8577 22.6424C34.3913 22.176 33.7971 21.8585 33.1502 21.73C32.8285 21.6667 32.4418 21.6667 31.6668 21.6667M24.1668 5.29C24.7019 5.09937 25.2655 5.0013 25.8335 5C28.5952 5 30.8335 7.285 30.8335 10.105V11.5633C30.8335 14.38 28.5952 16.6667 25.8335 16.6667C25.2655 16.6654 24.7019 16.5673 24.1668 16.3767M20.8335 11.5633V10.105C20.8335 7.28333 18.5952 5 15.8335 5C13.0718 5 10.8335 7.285 10.8335 10.105V11.5633C10.8335 14.38 13.0718 16.6667 15.8335 16.6667C18.5952 16.6667 20.8335 14.3817 20.8335 11.5633Z" stroke="#D69F56" stroke-width="1.5" stroke-linecap="round" stroke-linejoin="round"/>
</svg>
